<svg width="16" height="17" viewBox="0 0 16 17" fill="none" xmlns="http://www.w3.org/2000/svg">
    <path fill-rule="evenodd" clip-rule="evenodd" d="M0.96473 2.47583C0.96473 1.162 1.97158 0 3.33195 0H4.26556C5.47504 0 6.40508 0.918529 6.59651 2.04564C7.71584 2.27427 8.5 3.31551 8.5 4.475V4.95166H3.76556V4.475C3.76556 3.34532 4.50992 2.32789 5.58339 2.06487C5.41699 1.39495 4.85428 0.953316 4.26556 0.953316H3.33195C2.62985 0.953316 1.96473 1.58144 1.96473 2.47583V8.16328H8.51146C8.69775 7.60474 9.20351 7.16369 9.86722 7.16369H11.7344C12.3981 7.16369 12.9039 7.60474 13.0902 8.16328L14.5664 8.16328C15.4111 8.16328 16 8.87772 16 9.63952C16 10.2506 15.6211 10.8311 15.0353 11.037V12.6383C15.0353 13.9194 14.3636 15.0797 13.3353 15.6811L13.9751 16.3661L13.2282 17L12.3458 16.0552C12.1485 16.0935 11.9443 16.1137 11.7344 16.1137H4.26556C4.05569 16.1137 3.85146 16.0935 3.65425 16.0552L2.77177 17L2.02491 16.3661L2.66467 15.6811C1.63643 15.0797 0.96473 13.9194 0.96473 12.6383V11.037C0.378864 10.8311 0 10.2506 0 9.63952C0 9.02848 0.378864 8.44792 0.96473 8.24205V2.47583ZM1.96473 11.1158V12.6383C1.96473 14.0847 3.04783 15.1604 4.26556 15.1604H11.7344C12.9522 15.1604 14.0353 14.0847 14.0353 12.6383V11.1158H13.1681V12.1153H8.43361V11.1158H1.96473ZM8.43361 10.1624V9.11659H1.43361C1.24713 9.11659 1 9.29718 1 9.63952C1 9.98186 1.24713 10.1624 1.43361 10.1624H8.43361ZM13.1681 10.1624H14.5664C14.7529 10.1624 15 9.98186 15 9.63952C15 9.29718 14.7529 9.11659 14.5664 9.11659L13.1681 9.11659V10.1624ZM4.83274 3.99834H7.43282C7.24698 3.36539 6.70205 2.95249 6.13278 2.95249C5.56351 2.95249 5.01858 3.36539 4.83274 3.99834ZM9.86722 8.11701C9.68074 8.11701 9.43361 8.29759 9.43361 8.63994V11.162H12.1681V8.63994C12.1681 8.29759 11.9209 8.11701 11.7344 8.11701H9.86722Z" fill="#BDA588"/>
</svg>
