<svg width="17" height="16" viewBox="0 0 17 16" fill="none" xmlns="http://www.w3.org/2000/svg">
    <path d="M15.9375 7.47052V2.48907C15.9375 1.1166 14.8241 0 13.4556 0H3.47803C2.10949 0 0.996094 1.1166 0.996094 2.48907V7.51877C0.391465 7.97822 0 8.70573 0 9.52341V16H2.98828V14.0354H14.0117V16H17V9.52341C17 8.67626 16.5796 7.92621 15.9375 7.47052ZM0.996094 12.0042H16.0039V13.0364H0.996094V12.0042ZM7.96875 7.00937H2.98828V6.75963C2.98828 6.2088 3.43513 5.76067 3.98438 5.76067H6.97266C7.5219 5.76067 7.96875 6.2088 7.96875 6.75963V7.00937ZM13.9453 7.00937H8.96484V6.75963C8.96484 6.2088 9.41169 5.76067 9.96094 5.76067H12.9492C13.4985 5.76067 13.9453 6.2088 13.9453 6.75963V7.00937ZM1.99219 2.48907C1.99219 1.66743 2.65874 0.998959 3.47803 0.998959H13.4556C14.2749 0.998959 14.9414 1.66743 14.9414 2.48907V6.75963C14.9414 5.65797 14.0477 4.76171 12.9492 4.76171H9.96094C9.36634 4.76171 8.83213 5.02463 8.4668 5.44023C8.10146 5.02463 7.56726 4.76171 6.97266 4.76171H3.98438C2.88588 4.76171 1.99219 5.65797 1.99219 6.75963V2.48907ZM2.50684 8.00832H14.4932C15.3262 8.00832 16.0039 8.68798 16.0039 9.52341V11.0052H0.996094V9.52341C0.996094 8.68798 1.6738 8.00832 2.50684 8.00832ZM1.99219 15.001H0.996094V14.0354H1.99219V15.001ZM16.0039 15.001H15.0078V14.0354H16.0039V15.001Z" fill="#BDA588"/>
</svg>
