<svg width="17" height="17" viewBox="0 0 17 17" fill="none" xmlns="http://www.w3.org/2000/svg">
    <path d="M7.00586 8.99805H8.00195V9.99414H7.00586V8.99805Z" fill="#BDA588"/>
    <path d="M7.00586 5.01367H8.00195V6.00977H7.00586V5.01367Z" fill="#BDA588"/>
    <path d="M8.99805 5.01367H9.99414V6.00977H8.99805V5.01367Z" fill="#BDA588"/>
    <path d="M8.99805 8.99805H9.99414V9.99414H8.99805V8.99805Z" fill="#BDA588"/>
    <path d="M8.99805 7.00586H9.99414V8.00195H8.99805V7.00586Z" fill="#BDA588"/>
    <path d="M8.99805 14.9746H9.99414V17H8.99805V14.9746Z" fill="#BDA588"/>
    <path d="M7.00586 14.9746H8.00195V17H7.00586V14.9746Z" fill="#BDA588"/>
    <path d="M8.99805 3.02148H9.99414V4.01758H8.99805V3.02148Z" fill="#BDA588"/>
    <path d="M7.00586 7.00586H8.00195V8.00195H7.00586V7.00586Z" fill="#BDA588"/>
    <path d="M16.502 3.02148H12.9824V0.996094H13.4805C13.7558 0.996094 13.9785 0.773334 13.9785 0.498047C13.9785 0.22276 13.7558 0 13.4805 0H3.51953C3.24424 0 3.02148 0.22276 3.02148 0.498047C3.02148 0.773334 3.24424 0.996094 3.51953 0.996094H4.01758V3.02148H0.498047C0.22276 3.02148 0 3.24424 0 3.51953C0 3.79482 0.22276 4.01758 0.498047 4.01758H0.996094V16.502C0.996094 16.7808 1.2152 17 1.49414 17H6.00977V14.4766C6.00977 14.2013 6.23253 13.9785 6.50781 13.9785H10.4922C10.7675 13.9785 10.9902 14.2013 10.9902 14.4766V17H15.5059C15.7848 17 16.0039 16.7808 16.0039 16.502V4.01758H16.502C16.7772 4.01758 17 3.79482 17 3.51953C17 3.24424 16.7772 3.02148 16.502 3.02148ZM4.51562 11.9863H3.51953C3.24424 11.9863 3.02148 11.7636 3.02148 11.4883C3.02148 11.213 3.24424 10.9902 3.51953 10.9902H4.51562C4.79091 10.9902 5.01367 11.213 5.01367 11.4883C5.01367 11.7636 4.79091 11.9863 4.51562 11.9863ZM4.51562 9.99414H3.51953C3.24424 9.99414 3.02148 9.77138 3.02148 9.49609C3.02148 9.22081 3.24424 8.99805 3.51953 8.99805H4.51562C4.79091 8.99805 5.01367 9.22081 5.01367 9.49609C5.01367 9.77138 4.79091 9.99414 4.51562 9.99414ZM4.51562 8.00195H3.51953C3.24424 8.00195 3.02148 7.77919 3.02148 7.50391C3.02148 7.22862 3.24424 7.00586 3.51953 7.00586H4.51562C4.79091 7.00586 5.01367 7.22862 5.01367 7.50391C5.01367 7.77919 4.79091 8.00195 4.51562 8.00195ZM4.51562 6.00977H3.51953C3.24424 6.00977 3.02148 5.78701 3.02148 5.51172C3.02148 5.23643 3.24424 5.01367 3.51953 5.01367H4.51562C4.79091 5.01367 5.01367 5.23643 5.01367 5.51172C5.01367 5.78701 4.79091 6.00977 4.51562 6.00977ZM10.9902 12.4844C10.9902 12.7597 10.7675 12.9824 10.4922 12.9824H6.50781C6.23253 12.9824 6.00977 12.7597 6.00977 12.4844V2.52344C6.00977 2.24815 6.23253 2.02539 6.50781 2.02539H10.4922C10.7675 2.02539 10.9902 2.24815 10.9902 2.52344V12.4844ZM13.4805 11.9863H12.4844C12.2091 11.9863 11.9863 11.7636 11.9863 11.4883C11.9863 11.213 12.2091 10.9902 12.4844 10.9902H13.4805C13.7558 10.9902 13.9785 11.213 13.9785 11.4883C13.9785 11.7636 13.7558 11.9863 13.4805 11.9863ZM13.4805 9.99414H12.4844C12.2091 9.99414 11.9863 9.77138 11.9863 9.49609C11.9863 9.22081 12.2091 8.99805 12.4844 8.99805H13.4805C13.7558 8.99805 13.9785 9.22081 13.9785 9.49609C13.9785 9.77138 13.7558 9.99414 13.4805 9.99414ZM13.4805 8.00195H12.4844C12.2091 8.00195 11.9863 7.77919 11.9863 7.50391C11.9863 7.22862 12.2091 7.00586 12.4844 7.00586H13.4805C13.7558 7.00586 13.9785 7.22862 13.9785 7.50391C13.9785 7.77919 13.7558 8.00195 13.4805 8.00195ZM13.4805 6.00977H12.4844C12.2091 6.00977 11.9863 5.78701 11.9863 5.51172C11.9863 5.23643 12.2091 5.01367 12.4844 5.01367H13.4805C13.7558 5.01367 13.9785 5.23643 13.9785 5.51172C13.9785 5.78701 13.7558 6.00977 13.4805 6.00977Z" fill="#BDA588"/>
    <path d="M8.99805 10.9902H9.99414V11.9863H8.99805V10.9902Z" fill="#BDA588"/>
    <path d="M7.00586 3.02148H8.00195V4.01758H7.00586V3.02148Z" fill="#BDA588"/>
    <path d="M7.00586 10.9902H8.00195V11.9863H7.00586V10.9902Z" fill="#BDA588"/>
</svg>
