<svg width="19" height="15" viewBox="0 0 19 15" fill="none" xmlns="http://www.w3.org/2000/svg">
    <path d="M17.7608 9.64295H1.23912C0.554747 9.64295 0 10.1226 0 10.7144V11.2501C0 11.546 0.277392 11.7858 0.619577 11.7858H18.3804C18.7226 11.7858 19 11.546 19 11.2501V10.7144C19 10.1226 18.4452 9.64295 17.7608 9.64295Z" fill="#BDA588"/>
    <path d="M2.35321 12.8572L3.45361 14.2843C3.7991 14.7325 4.3773 15 5.00007 15H13.9999C14.6226 15 15.2009 14.7325 15.5463 14.2843L16.6468 12.8572H2.35321Z" fill="#BDA588"/>
    <path d="M12.8043 1.61183V6.96442C12.8043 7.26026 12.5269 7.50014 12.1847 7.50014C11.8425 7.50014 11.5652 7.26029 11.5652 6.96442V1.07326C11.5652 0.504201 11.0518 0.0220995 10.3941 0.00130736C10.3247 -0.000842443 8.64688 2.38956e-05 8.6058 0.00130736C7.94807 0.0220995 7.43474 0.504169 7.43474 1.07326V6.96442C7.43474 7.26026 7.15735 7.50014 6.81516 7.50014C6.47301 7.50014 6.19558 7.26029 6.19558 6.96442V1.61183C3.23014 2.67778 1.23912 5.19154 1.23912 8.03583V8.57154H17.7608V8.03583C17.7608 5.19154 15.7698 2.67778 12.8043 1.61183Z" fill="#BDA588"/>
</svg>
