<svg width="36" height="36" viewBox="0 0 36 36" fill="none" xmlns="http://www.w3.org/2000/svg">
    <rect width="36" height="36" fill="#841326"/>
    <g clip-path="url(#clip0_59_285)">
        <path d="M16.9845 9.21223C16.7806 8.46199 16.3355 7.79968 15.7179 7.3275C15.1002 6.85531 14.3444 6.59949 13.5669 6.59949C12.7895 6.59949 12.0336 6.85531 11.416 7.3275C10.7983 7.79968 10.3532 8.46199 10.1493 9.21223H6.6001V11.1122H10.1493C10.3532 11.8625 10.7983 12.5248 11.416 12.997C12.0336 13.4692 12.7895 13.725 13.5669 13.725C14.3444 13.725 15.1002 13.4692 15.7179 12.997C16.3355 12.5248 16.7806 11.8625 16.9845 11.1122H29.4001V9.21223H16.9845ZM13.5664 11.8247C13.2376 11.8247 12.9162 11.7272 12.6428 11.5446C12.3694 11.3619 12.1563 11.1022 12.0305 10.7984C11.9047 10.4947 11.8717 10.1604 11.9359 9.8379C12 9.5154 12.1584 9.21917 12.3909 8.98667C12.6234 8.75416 12.9196 8.59583 13.2421 8.53168C13.5646 8.46753 13.8989 8.50045 14.2027 8.62628C14.5064 8.75211 14.7661 8.9652 14.9488 9.2386C15.1314 9.51199 15.2289 9.83342 15.2289 10.1622C15.2282 10.6029 15.0528 11.0254 14.7412 11.337C14.4296 11.6486 14.0071 11.824 13.5664 11.8247Z" fill="white"/>
        <path d="M22.4337 14.4376C21.6571 14.4403 20.9027 14.6972 20.2857 15.1689C19.6686 15.6406 19.2229 16.3013 19.0166 17.0501H6.6001V18.9501H19.0166C19.2202 19.7005 19.6651 20.363 20.2827 20.8354C20.9003 21.3078 21.6562 21.5637 22.4337 21.5637C23.2113 21.5637 23.9672 21.3078 24.5848 20.8354C25.2024 20.363 25.6473 19.7005 25.8509 18.9501H29.4001V17.0501H25.8509C25.6446 16.3013 25.1989 15.6406 24.5818 15.1689C23.9648 14.6972 23.2104 14.4403 22.4337 14.4376ZM22.4337 19.6626C22.1049 19.6626 21.7835 19.5651 21.5101 19.3824C21.2367 19.1997 21.0236 18.9401 20.8978 18.6363C20.772 18.3325 20.739 17.9982 20.8032 17.6757C20.8673 17.3532 21.0257 17.057 21.2582 16.8245C21.4907 16.592 21.7869 16.4337 22.1094 16.3695C22.4319 16.3054 22.7662 16.3383 23.07 16.4641C23.3737 16.5899 23.6334 16.803 23.8161 17.0764C23.9987 17.3498 24.0962 17.6712 24.0962 18.0001C24.0957 18.4408 23.9204 18.8634 23.6088 19.1751C23.2971 19.4867 22.8745 19.6621 22.4337 19.6626Z" fill="white"/>
        <path d="M13.5664 22.275C12.7893 22.2772 12.0342 22.5338 11.4166 23.0055C10.799 23.4773 10.3529 24.1383 10.1464 24.8875H6.6001V26.7875H10.1493C10.3532 27.5378 10.7983 28.2001 11.416 28.6723C12.0336 29.1444 12.7895 29.4003 13.5669 29.4003C14.3444 29.4003 15.1002 29.1444 15.7179 28.6723C16.3355 28.2001 16.7806 27.5378 16.9845 26.7875H29.4001V24.8875H16.9845C16.7782 24.1386 16.3323 23.4778 15.7151 23.0061C15.0979 22.5344 14.3433 22.2776 13.5664 22.275ZM13.5664 27.5C13.2376 27.5 12.9162 27.4025 12.6428 27.2198C12.3694 27.0372 12.1563 26.7775 12.0305 26.4737C11.9047 26.17 11.8717 25.8357 11.9359 25.5132C12 25.1907 12.1584 24.8945 12.3909 24.662C12.6234 24.4295 12.9196 24.2711 13.2421 24.207C13.5646 24.1428 13.8989 24.1757 14.2027 24.3016C14.5064 24.4274 14.7661 24.6405 14.9488 24.9139C15.1314 25.1873 15.2289 25.5087 15.2289 25.8375C15.2282 26.2782 15.0528 26.7006 14.7412 27.0123C14.4296 27.3239 14.0071 27.4993 13.5664 27.5Z" fill="white"/>
    </g>
    <defs>
        <clipPath id="clip0_59_285">
            <rect width="22.8" height="22.8" fill="white" transform="translate(6.6001 6.60004)"/>
        </clipPath>
    </defs>
</svg>
