<svg width="23" height="22" viewBox="0 0 23 22" fill="none" xmlns="http://www.w3.org/2000/svg">
    <path fill-rule="evenodd" clip-rule="evenodd" d="M11.2079 0.0899767C11.0834 0.148259 9.33821 1.8654 5.53439 5.6723C0.0819686 11.1292 0.0405567 11.172 0.0104758 11.3805C-0.0299468 11.6609 0.0455927 11.871 0.254855 12.0599C0.456024 12.2415 0.679405 12.2948 0.942714 12.2239C1.09878 12.182 1.25661 12.0508 1.81965 11.4954L2.50629 10.8181L2.51807 16.1844L2.52985 21.5506L2.63457 21.6973C2.69217 21.7781 2.80346 21.8792 2.88188 21.922C3.01578 21.9952 3.54091 22 11.5002 22C19.4594 22 19.9846 21.9952 20.1185 21.922C20.1969 21.8792 20.3082 21.7781 20.3658 21.6973L20.4705 21.5506L20.4823 16.1844L20.494 10.8181L21.1807 11.4954C21.7437 12.0508 21.9016 12.182 22.0576 12.2239C22.3209 12.2948 22.5443 12.2415 22.7455 12.0599C22.9554 11.8703 23.0306 11.6607 22.989 11.3805C22.9589 11.1778 22.9142 11.1266 21.7254 9.93291L20.493 8.69542V6.14561C20.493 3.31782 20.5009 3.39759 20.1978 3.16648L20.028 3.03698L18.3832 3.02349C17.4786 3.01608 16.6715 3.02228 16.5896 3.03724C16.3881 3.07418 16.0993 3.34331 16.0427 3.54691C16.0176 3.63719 15.997 3.82214 15.9968 3.95798L15.9966 4.20495L13.9619 2.17335C11.6487 -0.136499 11.6651 -0.124054 11.2079 0.0899767ZM15.2658 5.58701L19.0092 9.32785V14.9337V20.5396H11.5002H3.99118V14.9339V9.3282L7.73434 5.58719C9.79307 3.52965 11.4876 1.84617 11.5 1.84617C11.5124 1.84617 13.207 3.52952 15.2658 5.58701ZM19.0088 5.85671L19.0084 7.21603L18.2444 6.44946L17.4804 5.68295V5.12012C17.4804 4.81056 17.4939 4.54382 17.5104 4.52737C17.5268 4.51088 17.8708 4.4974 18.2748 4.4974H19.0092L19.0088 5.85671ZM8.73488 7.55462C7.78416 7.70053 6.90638 8.20148 6.32899 8.92761C5.78641 9.60996 5.52059 10.377 5.52059 11.2603C5.52059 12.7899 6.38511 14.0976 7.80593 14.7171C8.21519 14.8955 8.84086 15.0168 9.28637 15.0042L9.65795 14.9936L11.6245 16.9536C13.2682 18.5919 13.6205 18.9222 13.7708 18.9656C13.8937 19.001 14.3581 19.013 15.2358 19.0033L16.5208 18.9893L16.6906 18.8598C16.9762 18.642 16.9858 18.5857 16.9858 17.1236C16.9858 16.077 16.973 15.7927 16.9215 15.6955C16.8259 15.5152 15.904 14.62 15.7576 14.5654C15.688 14.5394 15.3794 14.5181 15.0719 14.5181H14.5128L14.5125 14.0126C14.5121 13.2391 14.5206 13.2557 13.7041 12.4286L12.9943 11.7096L12.9706 11.1255C12.9534 10.7032 12.9195 10.4542 12.8483 10.2267C12.3561 8.65659 11.0271 7.61394 9.41555 7.53369C9.18956 7.52245 8.88326 7.53184 8.73488 7.55462ZM9.8762 9.11013C10.972 9.41169 11.6568 10.5382 11.4564 11.7096C11.3791 12.1612 11.4327 12.254 12.25 13.0839L12.984 13.8291L12.9851 14.5219C12.9865 15.477 13.0412 15.6639 13.3882 15.8999C13.5288 15.9956 13.5808 16.001 14.3489 16.001H15.161L15.3315 16.1674L15.502 16.3338V16.9313V17.5289H14.9069H14.3117L12.2877 15.5098C10.0158 13.2436 10.2019 13.3829 9.57994 13.4832C8.25175 13.6973 7.00377 12.6222 7.00377 11.2637C7.00377 10.6873 7.24653 10.0984 7.65062 9.69457C8.25701 9.08856 9.04545 8.88154 9.8762 9.11013ZM8.9597 10.58C8.20251 10.9318 8.48075 12.0699 9.30462 11.9909C10.0107 11.923 10.2257 11.0715 9.64599 10.6389C9.49675 10.5276 9.13879 10.4969 8.9597 10.58Z" fill="#BDA588"/>
</svg>
