<svg width="14" height="20" viewBox="0 0 14 20" fill="none" xmlns="http://www.w3.org/2000/svg">
    <path d="M0 6.8149C0 10.1813 2.63982 13.8336 4.96914 16.9899C5.52284 17.7397 6.05321 18.4579 6.51463 19.1317C6.62286 19.2898 6.80517 19.3846 6.99996 19.3846C7.19476 19.3846 7.37707 19.2898 7.48529 19.1317C7.94671 18.4579 8.47708 17.7396 9.03078 16.9899C11.3602 13.8336 14 10.1813 14 6.8149C14 3.05694 10.86 0 7 0C3.13997 0 0 3.05694 0 6.8149ZM10.5 6.8149C10.5 8.69389 8.93002 10.2224 7 10.2224C5.06998 10.2224 3.5 8.69389 3.5 6.8149C3.5 4.93592 5.06998 3.40745 7 3.40745C8.93002 3.40745 10.5 4.93592 10.5 6.8149Z" fill="#BDA588"/>
    <path d="M7 9.08654C8.28866 9.08654 9.33333 8.06949 9.33333 6.8149C9.33333 5.56031 8.28866 4.54327 7 4.54327C5.71134 4.54327 4.66667 5.56031 4.66667 6.8149C4.66667 8.06949 5.71134 9.08654 7 9.08654Z" fill="#BDA588"/>
</svg>
