<svg width="23" height="23" viewBox="0 0 23 23" fill="none" xmlns="http://www.w3.org/2000/svg">
    <path fill-rule="evenodd" clip-rule="evenodd" d="M0.37326 0.0934852C0.238408 0.160214 0.158054 0.241422 0.0922246 0.377444C8.99356e-05 0.567783 0 0.575652 0 10.7692V20.9706L0.0926293 21.1619C0.159898 21.3008 0.237689 21.3786 0.376633 21.4459C0.566882 21.538 0.601866 21.5385 6.53131 21.5385H12.4947L12.8685 21.8066C13.6007 22.3316 14.4402 22.7004 15.3473 22.8955C15.9963 23.0352 17.1347 23.0348 17.7924 22.8946C20.3745 22.3444 22.3425 20.3765 22.8949 17.7923C23.035 17.1372 23.035 15.9575 22.8949 15.3023C22.5095 13.4989 21.4412 11.9973 19.8636 11.0411C18.8254 10.4119 17.4515 10.0649 16.2663 10.1325L15.783 10.1601V5.364C15.783 0.613199 15.7821 0.56612 15.6903 0.376589C15.6231 0.237645 15.5453 0.159855 15.4063 0.0925859C15.2155 0.00022642 15.1944 -4.3373e-05 7.88851 1.59268e-06L0.562071 4.65584e-05L0.37326 0.0934852ZM14.423 5.91636L14.4115 10.4838L14.0518 10.6334C12.1012 11.4444 10.7001 13.163 10.2453 15.3023C10.1144 15.9179 10.1034 17.0951 10.2229 17.6923C10.3806 18.4798 10.7673 19.4565 11.154 20.0434L11.2502 20.1895H6.2996H1.34897V10.7692V1.34893H7.8917H14.4344L14.423 5.91636ZM3.29603 3.01625C3.16118 3.08298 3.08082 3.16419 3.01499 3.30021C2.92646 3.48309 2.92277 3.5669 2.92277 5.39584C2.92277 7.22761 2.92632 7.30832 3.0154 7.49232C3.08267 7.63126 3.16046 7.70905 3.2994 7.77632C3.48862 7.86792 3.53965 7.86895 7.91396 7.86895C12.2883 7.86895 12.3393 7.86792 12.5285 7.77632C12.6675 7.70905 12.7453 7.63126 12.8125 7.49232C12.9016 7.30832 12.9051 7.22761 12.9051 5.39584C12.9051 3.56407 12.9016 3.48336 12.8125 3.29936C12.7453 3.16041 12.6675 3.08262 12.5285 3.01536C12.3393 2.92376 12.2884 2.92273 7.91099 2.92277C3.51964 2.92282 3.48336 2.92354 3.29603 3.01625ZM11.5562 5.39584V6.51998H7.91396H4.27174V5.39584V4.2717H7.91396H11.5562V5.39584ZM3.65575 9.49131C3.45638 9.59001 3.28249 9.86066 3.28249 10.0723C3.28249 10.2867 3.45705 10.5563 3.65913 10.6541C3.93549 10.7879 4.69792 10.7879 4.97428 10.6541C5.17636 10.5563 5.35092 10.2867 5.35092 10.0723C5.35092 9.85787 5.17636 9.58826 4.97428 9.49041C4.69658 9.35597 3.92811 9.35651 3.65575 9.49131ZM7.25301 9.49131C7.11816 9.55804 7.0378 9.63925 6.97197 9.77527C6.85601 10.0148 6.85605 10.1299 6.97238 10.3701C7.1133 10.6613 7.32707 10.7468 7.91396 10.7468C8.50085 10.7468 8.71462 10.6613 8.85554 10.3701C8.90649 10.2649 8.94817 10.1309 8.94817 10.0723C8.94817 9.85787 8.77361 9.58826 8.57154 9.49041C8.29383 9.35597 7.52537 9.35651 7.25301 9.49131ZM10.8503 9.49131C10.7154 9.55804 10.6351 9.63925 10.5692 9.77527C10.4533 10.0148 10.4533 10.1299 10.5696 10.3701C10.7106 10.6613 10.9243 10.7468 11.5112 10.7468C12.0981 10.7468 12.3119 10.6613 12.4528 10.3701C12.5037 10.2649 12.5454 10.1309 12.5454 10.0723C12.5454 9.85787 12.3709 9.58826 12.1688 9.49041C11.8911 9.35597 11.1226 9.35651 10.8503 9.49131ZM17.3816 11.5353C18.7923 11.7813 20.0222 12.5877 20.795 13.7734C22.1227 15.8106 21.8341 18.47 20.0985 20.1895C19.4532 20.829 18.6708 21.2791 17.7839 21.521C17.3742 21.6329 17.2644 21.6437 16.5474 21.6437C15.833 21.6437 15.719 21.6325 15.3108 21.5222C14.3678 21.2672 13.3661 20.6477 12.7562 19.9421C11.2108 18.1546 11.0406 15.6888 12.3265 13.7145C12.5714 13.3384 13.3385 12.5714 13.7145 12.3264C14.8202 11.6063 16.147 11.32 17.3816 11.5353ZM16.221 12.9152C16.0478 13.0156 15.8729 13.2979 15.8729 13.4771C15.8729 13.5436 15.8035 13.6102 15.6356 13.705C15.0705 14.0238 14.6841 14.7669 14.7667 15.3755C14.8734 16.1618 15.3197 16.5717 16.6045 17.0636C16.8585 17.1609 17.072 17.2719 17.1104 17.3268C17.2036 17.4598 17.193 17.757 17.0889 17.9276C16.9422 18.1683 16.7972 18.2337 16.4144 18.2321C16.115 18.2309 16.0356 18.2111 15.7376 18.0635C15.3489 17.871 15.2537 17.8615 14.9905 17.9889C14.631 18.1629 14.5233 18.5882 14.747 18.9502C14.8514 19.1192 15.417 19.4402 15.7043 19.4937C15.8348 19.518 15.8729 19.5461 15.8729 19.6183C15.8729 19.8019 16.0485 20.0806 16.2275 20.1813C16.4461 20.3041 16.6343 20.3058 16.8673 20.1869C17.0625 20.0873 17.219 19.8251 17.2209 19.5945C17.2217 19.492 17.2605 19.452 17.4542 19.3539C17.9471 19.1041 18.3545 18.5815 18.4814 18.0361C18.5619 17.6905 18.5167 17.1688 18.3796 16.8597C18.1541 16.3514 17.8535 16.1134 17.0108 15.7759C16.3385 15.5067 16.0977 15.3669 16.0977 15.2457C16.0977 15.0674 16.1892 14.9233 16.3433 14.859C16.6049 14.7496 16.8146 14.7756 17.087 14.951C17.5564 15.2535 18.0264 15.1009 18.1703 14.5993C18.2695 14.2533 17.9657 13.8264 17.4757 13.6233C17.2962 13.5489 17.2219 13.4936 17.2219 13.4346C17.2219 13.2618 17.0424 12.9971 16.8633 12.9057C16.6353 12.7894 16.4329 12.7924 16.221 12.9152ZM3.65575 13.0886C3.5209 13.1553 3.44055 13.2365 3.37472 13.3725C3.25875 13.6121 3.2588 13.7271 3.37512 13.9674C3.51605 14.2585 3.72981 14.344 4.3167 14.344C4.9036 14.344 5.11736 14.2585 5.25829 13.9674C5.30923 13.8622 5.35092 13.7281 5.35092 13.6695C5.35092 13.4551 5.17636 13.1855 4.97428 13.0877C4.69658 12.9532 3.92811 12.9538 3.65575 13.0886ZM7.25301 13.0886C7.11816 13.1553 7.0378 13.2365 6.97197 13.3725C6.85601 13.6121 6.85605 13.7271 6.97238 13.9674C7.1133 14.2585 7.32707 14.344 7.91396 14.344C8.50085 14.344 8.71462 14.2585 8.85554 13.9674C8.90649 13.8622 8.94817 13.7281 8.94817 13.6695C8.94817 13.4551 8.77361 13.1855 8.57154 13.0877C8.29383 12.9532 7.52537 12.9538 7.25301 13.0886ZM3.65575 16.6858C3.5209 16.7526 3.44055 16.8338 3.37472 16.9698C3.25875 17.2094 3.2588 17.3244 3.37512 17.5646C3.51605 17.8558 3.72981 17.9413 4.3167 17.9413C4.9036 17.9413 5.11736 17.8558 5.25829 17.5646C5.30923 17.4594 5.35092 17.3254 5.35092 17.2668C5.35092 17.0524 5.17636 16.7828 4.97428 16.6849C4.69658 16.5505 3.92811 16.551 3.65575 16.6858ZM7.25301 16.6858C7.11816 16.7526 7.0378 16.8338 6.97197 16.9698C6.85601 17.2094 6.85605 17.3244 6.97238 17.5646C7.1133 17.8558 7.32707 17.9413 7.91396 17.9413C8.50085 17.9413 8.71462 17.8558 8.85554 17.5646C8.90649 17.4594 8.94817 17.3254 8.94817 17.2668C8.94817 17.0524 8.77361 16.7828 8.57154 16.6849C8.29383 16.5505 7.52537 16.551 7.25301 16.6858Z" fill="#BDA588"/>
</svg>
