<svg width="19" height="23" viewBox="0 0 19 23" fill="none" xmlns="http://www.w3.org/2000/svg">
    <path fill-rule="evenodd" clip-rule="evenodd" d="M0.485221 0.061981C0.294732 0.144823 0.10037 0.356689 0.0462347 0.540523C-0.0158783 0.751536 -0.0151866 22.245 0.0469724 22.4629C0.0984795 22.6435 0.329731 22.8814 0.522803 22.9523C0.612721 22.9854 3.37322 23 9.50012 23C15.627 23 18.3875 22.9854 18.4774 22.9523C18.6705 22.8814 18.9018 22.6435 18.9533 22.4629C19.0156 22.2444 19.0156 0.753966 18.9533 0.53545C18.9018 0.354806 18.6705 0.116926 18.4774 0.0459896C18.3875 0.0129696 15.6269 -0.00114119 9.4856 7.1791e-05C2.18413 0.0015094 0.59921 0.0124285 0.485221 0.061981ZM17.4545 11.4992V21.495H9.50012H1.5458L1.53399 11.5441C1.52749 6.07108 1.53206 1.56783 1.54409 1.53687C1.56161 1.49204 3.17913 1.48292 9.51027 1.49195L17.4545 1.50332V11.4992ZM3.01908 2.57707C2.83334 2.65623 2.63958 2.88575 2.60656 3.06577C2.59199 3.14538 2.58595 6.99452 2.59319 11.6194L2.60638 20.0284L2.70146 20.1524C2.75375 20.2207 2.85381 20.3181 2.92386 20.3691C3.05103 20.4616 3.05869 20.4617 9.50012 20.4617C15.9416 20.4617 15.9492 20.4616 16.0764 20.3691C16.1464 20.3181 16.2465 20.2207 16.2988 20.1524L16.3939 20.0283V11.4992V2.96999L16.2988 2.8459C16.2465 2.77766 16.1464 2.68017 16.0764 2.62923C15.9494 2.53682 15.9333 2.53655 9.5544 2.52689C4.30851 2.5189 3.13445 2.52792 3.01908 2.57707ZM14.8952 11.4992V19.0017H9.50012H4.10502V11.4992V3.99666H9.50012H14.8952V11.4992ZM11.7403 10.1254C11.4053 10.2629 11.1042 10.5428 10.939 10.8702C10.8332 11.0799 10.8143 11.1751 10.8143 11.4992C10.8143 11.8252 10.8329 11.918 10.9417 12.1337C11.4128 13.0683 12.6795 13.2701 13.4184 12.5284C13.7244 12.2212 13.8116 11.9929 13.8116 11.4992C13.8116 11.0054 13.7244 10.7772 13.4184 10.47C13.1325 10.1829 12.8176 10.0492 12.3821 10.0298C12.0687 10.0158 11.9722 10.0302 11.7403 10.1254Z" fill="#BDA588"/>
</svg>
