<svg width="17" height="17" viewBox="0 0 17 17" fill="none" xmlns="http://www.w3.org/2000/svg">
    <path d="M16.502 0H14.5098C14.2347 0 14.0117 0.222992 14.0117 0.498047V0.996094H2.98828V0.498047C2.98828 0.222992 2.76529 0 2.49023 0H0.498047C0.222992 0 0 0.222992 0 0.498047V2.49023C0 2.76529 0.222992 2.98828 0.498047 2.98828H0.996094V14.0117H0.498047C0.222992 14.0117 0 14.2347 0 14.5098V16.502C0 16.777 0.222992 17 0.498047 17H2.49023C2.76529 17 2.98828 16.777 2.98828 16.502V16.0039H14.0117V16.502C14.0117 16.777 14.2347 17 14.5098 17H16.502C16.777 17 17 16.777 17 16.502V14.5098C17 14.2347 16.777 14.0117 16.502 14.0117H16.0039V2.98828H16.502C16.777 2.98828 17 2.76529 17 2.49023V0.498047C17 0.222992 16.777 0 16.502 0ZM15.0078 14.0117H14.5098C14.2347 14.0117 14.0117 14.2347 14.0117 14.5098V15.0078H2.98828V14.5098C2.98828 14.2347 2.76529 14.0117 2.49023 14.0117H1.99219V2.98828H2.49023C2.76529 2.98828 2.98828 2.76529 2.98828 2.49023V1.99219H14.0117V2.49023C14.0117 2.76529 14.2347 2.98828 14.5098 2.98828H15.0078V14.0117Z" fill="#BDA588"/>
</svg>
