<svg width="23" height="23" viewBox="0 0 23 23" fill="none" xmlns="http://www.w3.org/2000/svg">
    <path fill-rule="evenodd" clip-rule="evenodd" d="M1.98085 0.0745343C1.78792 0.156221 0.321762 1.55999 0.134854 1.84196C-0.161652 2.2892 0.0505516 2.83079 0.577979 2.97296C0.810741 3.03574 1.07823 2.94925 1.31743 2.73401L1.5202 2.55146V9.22703V15.9026L1.28827 15.7236C1.16073 15.6251 0.98284 15.5311 0.892928 15.5146C0.572414 15.4559 0.185352 15.6499 0.0659127 15.929C-0.0109387 16.1086 -0.0165036 16.4096 0.0545989 16.5434C0.11333 16.6539 1.65661 18.2054 1.85631 18.3547C2.0285 18.4834 2.25786 18.5202 2.49641 18.4575C2.65968 18.4146 2.82806 18.2748 3.51296 17.6136C3.96445 17.1777 4.37594 16.764 4.42736 16.6942C4.87448 16.0874 4.22674 15.2732 3.53752 15.5757C3.42714 15.6241 3.28668 15.717 3.22537 15.7821C3.16402 15.8472 3.09678 15.9005 3.0759 15.9005C3.05502 15.9005 3.03791 12.897 3.03791 9.226V2.55146L3.24069 2.73401C3.3541 2.83609 3.52643 2.93834 3.63162 2.966C4.18057 3.11029 4.70022 2.59817 4.55328 2.0577C4.50968 1.89729 4.36444 1.73167 3.64316 1.01971C2.60555 -0.0045032 2.41855 -0.1108 1.98085 0.0745343ZM6.60224 0.0668103C6.41225 0.14962 6.21839 0.361404 6.1644 0.545166C6.1357 0.64284 6.1197 3.54711 6.12034 8.53532C6.12131 16.0807 6.12453 16.3788 6.20694 16.5561C6.25404 16.6573 6.36225 16.7887 6.44738 16.848L6.60224 16.9558L14.5399 16.9674L22.4775 16.979L22.6332 16.8766C22.7189 16.8201 22.8362 16.7056 22.8939 16.622L22.9989 16.4699L22.987 8.46436C22.9751 0.462988 22.9751 0.458765 22.8804 0.332035C22.8284 0.262294 22.6946 0.15977 22.5833 0.104219L22.3807 0.00317654L14.5605 0.004928C8.12915 0.00636505 6.7157 0.017367 6.60224 0.0668103ZM10.2128 5.62786C10.213 8.49652 10.2286 9.8252 10.2636 9.94811C10.4417 10.5748 11.3505 10.6771 11.6497 10.1042C11.7204 9.96877 11.7301 9.80288 11.7302 8.72824L11.7303 7.50626L13.792 7.49328L15.8537 7.4803L16.0226 7.35447C16.2437 7.18984 16.3459 6.99049 16.3427 6.73061C16.3397 6.49103 16.2134 6.25581 16.0181 6.12647C15.9017 6.04941 15.74 6.04159 13.8229 6.0208L11.7533 5.99835V3.75297V1.50758L16.6168 1.49613L21.4804 1.48473V3.75274V6.0208H20.2341C18.8282 6.0208 18.7586 6.03405 18.5506 6.34095C18.327 6.67084 18.4125 7.10168 18.7517 7.35447L18.9205 7.4803L20.2005 7.49413L21.4804 7.50797V11.5021V15.4963H16.6053H11.7303L11.7302 14.2726C11.7301 13.1963 11.7204 13.0303 11.6497 12.8949C11.3505 12.3219 10.4417 12.4243 10.2636 13.051C10.2331 13.1581 10.213 13.6779 10.2128 14.3624L10.2126 15.4963H8.9248H7.63704V8.52068C7.63704 4.68404 7.65084 1.53152 7.66772 1.51508C7.68455 1.4986 8.26404 1.48513 8.95547 1.48513H10.2126L10.2128 5.62786ZM5.03853 18.5749C4.868 18.6604 3.24051 20.2333 3.14981 20.4002C3.11357 20.467 3.08391 20.6307 3.08391 20.764C3.08391 21.0797 3.14356 21.1566 4.12542 22.1073C5.08374 23.0351 5.26076 23.123 5.70725 22.8925C6.033 22.7242 6.20092 22.3131 6.07541 21.9907C6.05122 21.9287 5.95569 21.796 5.86306 21.6959L5.69469 21.5139H13.0415H20.3883L20.2014 21.712C19.8177 22.1184 19.9111 22.6957 20.3951 22.9103C20.6262 23.0128 20.7876 23.0171 21.0095 22.9266C21.2109 22.8444 22.668 21.4555 22.8658 21.1571C23.0087 20.9416 23.0392 20.6826 22.9491 20.4503C22.9221 20.3808 22.5141 19.945 22.0424 19.4819C21.3967 18.8481 21.1361 18.6218 20.988 18.5666C20.2027 18.2737 19.6224 19.1757 20.2014 19.789L20.3883 19.9871H13.0415H5.69469L5.85833 19.8102C6.14085 19.5049 6.18533 19.1563 5.98301 18.8325C5.80659 18.5501 5.34111 18.4231 5.03853 18.5749Z" fill="#BDA588"/>
</svg>
