<svg width="48" height="46" viewBox="0 0 48 46" fill="none" xmlns="http://www.w3.org/2000/svg">
    <path fill-rule="evenodd" clip-rule="evenodd" d="M14.9091 13.4744C12.4088 14.4111 11.1174 17.5167 11.9523 20.5849C12.4201 22.3037 13.6475 24.3428 15.3063 26.157C16.3618 27.3111 20.2419 30.9794 21.1804 31.7106C22.7995 32.9717 24.2739 33.787 25.8679 34.3027C27.122 34.7084 28.9725 34.8174 30.0761 34.5505C31.705 34.1565 33.172 33.0969 33.7429 31.902C34.2514 30.8373 34.1853 29.58 33.5861 28.9207C33.3967 28.7122 32.6059 28.2938 31.1403 27.6265C28.2315 26.3022 27.9107 26.2762 26.3173 27.2349C25.8092 27.5406 25.3459 27.7906 25.2877 27.7906C24.8727 27.7906 20.9726 24.2409 19.6306 22.642L18.8444 21.7051L19.4324 20.8168C20.1004 19.808 20.2746 19.3126 20.1935 18.6535C20.1368 18.1932 18.2576 14.2392 17.909 13.8469C17.4109 13.2861 15.9092 13.0997 14.9091 13.4744ZM18.1092 18.9196C18.1092 18.8448 17.7064 17.9785 17.2139 16.9947C16.7215 16.0109 16.2569 15.207 16.1814 15.2082C15.8956 15.2129 15.1785 15.5945 14.8327 15.9257C14.6351 16.1152 14.3337 16.5561 14.1632 16.9053C13.3334 18.6046 13.8741 20.8992 15.688 23.3758C16.4785 24.4553 21.5004 29.383 22.8293 30.3833C24.2304 31.4381 25.8035 32.2424 27.1109 32.5724C27.8442 32.7576 29.1906 32.7344 29.8643 32.5249C30.9683 32.1816 31.8462 31.3984 31.9489 30.665L32.0045 30.2677L30.1949 29.4352C29.1997 28.9772 28.2867 28.6025 28.166 28.6025C28.0452 28.6025 27.675 28.7778 27.3433 28.9921C25.8868 29.9328 25.3652 30.0911 24.6186 29.8191C23.3684 29.3636 17.7122 23.9966 16.8653 22.4621C16.7476 22.2491 16.6895 21.8301 16.7165 21.3902C16.7253 21.247 17.0422 20.6632 17.4208 20.0928C17.7994 19.5224 18.1092 18.9945 18.1092 18.9196Z" fill="#BDA588"/>
    <path fill-rule="evenodd" clip-rule="evenodd" d="M23.9868 39.3778C33.4326 39.3778 41.0899 32.0395 41.0899 22.9873C41.0899 13.9351 33.4326 6.5968 23.9868 6.5968C14.541 6.5968 6.88362 13.9351 6.88362 22.9873C6.88362 32.0395 14.541 39.3778 23.9868 39.3778ZM23.9868 41.4076C34.6023 41.4076 43.2079 33.1606 43.2079 22.9873C43.2079 12.8141 34.6023 4.56702 23.9868 4.56702C13.3712 4.56702 4.76558 12.8141 4.76558 22.9873C4.76558 33.1606 13.3712 41.4076 23.9868 41.4076Z" fill="#BDA588"/>
    <path fill-rule="evenodd" clip-rule="evenodd" d="M24 43.9702C36.0851 43.9702 45.882 34.5815 45.882 23C45.882 11.4185 36.0851 2.02978 24 2.02978C11.9149 2.02978 2.11804 11.4185 2.11804 23C2.11804 34.5815 11.9149 43.9702 24 43.9702ZM24 46C37.2548 46 48 35.7025 48 23C48 10.2975 37.2548 0 24 0C10.7452 0 0 10.2975 0 23C0 35.7025 10.7452 46 24 46Z" fill="#BDA588"/>
</svg>
