<svg width="50" height="51" viewBox="0 0 50 51" fill="none" xmlns="http://www.w3.org/2000/svg">
    <path fill-rule="evenodd" clip-rule="evenodd" d="M22.6768 0.103179C19.9487 0.349957 16.6391 1.30814 14.0626 2.59704C4.75573 7.25286 -0.825819 17.311 0.099767 27.7588C1.00674 37.9964 7.86085 46.7098 17.4793 49.8529C18.7293 50.2613 19.9764 50.5487 21.6056 50.8037C23.1135 51.0397 26.6296 51.0691 28.1321 50.8582C33.6405 50.0849 38.497 47.7059 42.3833 43.877C46.4932 39.8279 49.0731 34.5902 49.8655 28.6865C50.0448 27.3508 50.0448 23.6918 49.8655 22.3561C49.0722 16.4456 46.494 11.2155 42.3717 7.15419C37.1333 1.99303 30.0028 -0.55977 22.6768 0.103179ZM28.8275 2.48408C37.2823 3.98046 44.187 10.0636 46.7994 18.3177C51.4659 33.0615 41.0544 48.2579 25.8852 48.8437C20.5813 49.0485 15.6219 47.4574 11.2273 44.1416C9.92857 43.1616 7.74979 40.9406 6.75658 39.5841C0.387789 30.8861 0.621031 19.1597 7.33092 10.7195C9.36151 8.16531 12.2444 5.86769 15.2736 4.38954C17.2751 3.41279 20.2976 2.54367 22.622 2.27637C24.0385 2.11353 27.3621 2.22475 28.8275 2.48408ZM35.9959 12.2029C35.8194 12.2493 30.6918 14.2624 24.6013 16.6764C18.5108 19.0904 12.5899 21.435 11.4437 21.8864C9.28181 22.738 8.62402 23.1036 8.2244 23.6761C7.6995 24.428 7.89583 25.5098 8.64948 26.0187C8.86101 26.1614 10.5161 26.7643 12.3275 27.3586C14.1389 27.9528 15.6394 28.4578 15.6618 28.4809C15.6843 28.5039 16.234 30.2824 16.8835 32.4333C17.5329 34.584 18.1892 36.5612 18.342 36.8271C18.7308 37.5039 19.0455 37.6862 19.7609 37.649C19.9553 37.6388 22.1668 35.7993 24.125 34.0189C24.3407 33.8228 24.3935 33.8568 27.5416 36.2179C29.3003 37.5369 30.9457 38.6965 31.1982 38.7948C31.8454 39.047 32.715 38.9599 33.1824 38.5963C33.9502 37.9989 33.9536 37.986 36.2632 26.8856C38.9486 13.9795 38.8578 14.4523 38.7732 13.8166C38.6014 12.5247 37.4093 11.8321 35.9959 12.2029ZM36.6914 14.329C36.6914 14.4794 32.1724 36.1122 32.0792 36.408C31.9803 36.7215 31.9424 36.7483 31.7482 36.6423C31.3953 36.4497 22.0902 29.4458 22.0553 29.3466C22.0379 29.2971 23.049 28.3067 24.3022 27.1458C29.2348 22.5765 32.7282 19.2113 33.2278 18.5476C34.071 17.4271 33.3646 16.2214 32.0728 16.5763C31.8198 16.6458 31.3713 16.8274 31.0761 16.98C29.593 17.7465 24.9764 20.6757 19.4416 24.3619L16.3683 26.4088L13.5849 25.5012C12.0541 25.002 10.801 24.5646 10.8004 24.5294C10.7998 24.494 12.1568 23.9292 13.8159 23.2742C15.475 22.6191 21.2406 20.3324 26.6282 18.1926C32.0159 16.0528 36.4842 14.297 36.5577 14.2907C36.6313 14.2844 36.6914 14.3017 36.6914 14.329ZM25.6147 22.9952C25.2315 23.363 22.9715 25.4532 21.1776 27.0988C20.2066 27.9894 19.3537 28.8215 19.2822 28.9479C19.2108 29.0743 19.145 29.4969 19.1361 29.8871C19.1271 30.2773 19.0892 30.9158 19.052 31.306L18.9843 32.0154L18.4225 30.1576C18.1137 29.1357 17.8634 28.2271 17.8666 28.1384C17.8697 28.0496 18.2429 27.7344 18.6958 27.4379C19.1487 27.1413 20.9146 25.9749 22.62 24.8457C24.3255 23.7166 25.7445 22.7927 25.7733 22.7927C25.8022 22.7927 25.7308 22.8838 25.6147 22.9952ZM21.9273 32.0074L22.5706 32.4906L21.8669 33.1261C21.4799 33.4757 21.1253 33.7757 21.0788 33.793C20.9972 33.823 21.0147 33.299 21.1354 32.0973C21.1671 31.7822 21.2134 31.5243 21.2385 31.5243C21.2635 31.5243 21.5735 31.7417 21.9273 32.0074Z" fill="#BDA588"/>
</svg>
