<svg width="50" height="49" viewBox="0 0 50 49" fill="none" xmlns="http://www.w3.org/2000/svg">
    <path fill-rule="evenodd" clip-rule="evenodd" d="M22.7878 0.124999C16.1794 0.984538 10.2747 4.40931 6.32495 9.67349C3.98251 12.7954 2.5211 16.1965 1.80109 20.2024C1.48164 21.9796 1.41038 25.3505 1.65206 27.2508C1.94285 29.5372 2.64756 32.0977 3.52312 34.0498L3.85199 34.7831L1.92605 41.2671C0.866684 44.8334 0 47.8841 0 48.0463C0 48.2085 0.124636 48.4895 0.276983 48.6706C0.497051 48.9323 0.637734 49 0.961578 49C1.18571 49 3.79325 48.4211 6.75599 47.7134C9.71872 47.0059 12.6794 46.2999 13.3352 46.1446L14.5278 45.8623L15.9029 46.4549C19.3434 47.9375 22.0775 48.5089 25.7299 48.5089C29.7144 48.5089 33.0444 47.7376 36.5353 46.0062C43.8605 42.3732 48.6725 35.5726 49.8699 27.1609C50.0673 25.7746 50.0346 22.4275 49.8087 20.8982C49.0396 15.6896 46.7698 11.06 43.1763 7.37054C39.4659 3.56101 35.0275 1.20282 29.8488 0.289649C28.1387 -0.0119234 24.4935 -0.0969246 22.7878 0.124999ZM42.9264 21.0252C41.3397 13.9359 36.1535 8.74758 29.1534 7.24657C27.7584 6.94746 24.479 6.85979 23.101 7.08481C19.6986 7.64032 16.787 8.97775 14.1928 11.1765C8.26009 16.2054 6.3902 24.9195 9.72878 31.9811C9.90894 32.3624 10.0565 32.7386 10.0565 32.8172C10.0566 32.8959 9.64148 34.789 9.13427 37.0239C8.62694 39.259 8.2372 41.113 8.26812 41.1439C8.29903 41.1749 10.2687 40.9001 12.6451 40.5333L16.9658 39.8663L17.995 40.3639C20.8103 41.7251 24.0499 42.3344 27.0234 42.0618C29.6183 41.8239 31.1852 41.3809 33.5398 40.2197C35.3986 39.3029 36.9055 38.1887 38.3881 36.6348C40.6396 34.275 42.0921 31.564 42.8618 28.285C43.1467 27.0709 43.1632 26.865 43.1624 24.5381C43.1617 22.3941 43.1311 21.9401 42.9264 21.0252ZM16.6663 14.2007C14.1405 15.1888 12.8358 18.4647 13.6793 21.7012C14.1519 23.5142 15.3918 25.6652 17.0676 27.5788C18.1339 28.7962 22.0537 32.6657 23.0018 33.4369C24.6374 34.7671 26.1269 35.6272 27.7372 36.1711C29.0041 36.5992 30.8736 36.7141 31.9885 36.4326C33.634 36.017 35.1161 34.8992 35.6927 33.6388C36.2065 32.5158 36.1397 31.1895 35.5344 30.4941C35.343 30.2741 34.5441 29.8328 33.0636 29.1289C30.125 27.7319 29.801 27.7045 28.1913 28.7158C27.678 29.0382 27.2099 29.302 27.1511 29.302C26.7319 29.302 22.7919 25.5577 21.4361 23.871L20.6419 22.8828L21.236 21.9458C21.9107 20.8817 22.0867 20.3591 22.0048 19.6638C21.9475 19.1783 20.0491 15.0075 19.697 14.5937C19.1937 14.0021 17.6767 13.8055 16.6663 14.2007ZM18.9947 17.9141C19.4922 18.9519 19.8992 19.8656 19.8992 19.9445C19.8992 20.0235 19.5863 20.5804 19.2038 21.182C18.8213 21.7838 18.5011 22.3996 18.4922 22.5506C18.465 23.0146 18.5237 23.4566 18.6425 23.6813C19.4981 25.2999 25.2122 30.9612 26.4751 31.4417C27.2294 31.7286 27.7564 31.5616 29.2277 30.5693C29.5628 30.3433 29.9368 30.1584 30.0588 30.1584C30.1808 30.1584 31.1031 30.5537 32.1085 31.0367L33.9366 31.9149L33.8804 32.334C33.7766 33.1076 32.8898 33.9337 31.7745 34.2959C31.0939 34.5168 29.7338 34.5414 28.9929 34.346C27.6722 33.9978 26.083 33.1494 24.6675 32.0368C23.3251 30.9817 18.2518 25.7838 17.4532 24.6451C15.6208 22.0327 15.0745 19.6123 15.9128 17.8198C16.0851 17.4514 16.3895 16.9864 16.5892 16.7865C16.9385 16.4371 17.663 16.0346 17.9516 16.0296C18.0279 16.0283 18.4973 16.8763 18.9947 17.9141ZM35.4824 4.34872C33.2023 3.23321 30.8474 2.53083 28.3538 2.2223C26.9525 2.04898 23.8936 2.0994 22.4668 2.31929C12.7138 3.82244 5.19476 11.4248 3.80192 21.191C3.4861 23.4048 3.57725 26.451 4.02531 28.6597C4.35985 30.3094 5.19273 32.7778 5.83196 34.0149C5.93124 34.207 6.01052 34.5139 6.00806 34.6969C6.0056 34.8798 5.23531 37.6067 4.2963 40.7568C3.3573 43.9069 2.59631 46.4921 2.60508 46.5019C2.61396 46.5116 5.31715 45.8743 8.61228 45.0858C11.9074 44.2972 14.6808 43.651 14.7753 43.6496C14.8698 43.6484 15.5438 43.9311 16.273 44.278C24.7191 48.2961 34.7034 46.5746 41.3521 39.9539C45.0821 36.2397 47.3024 31.5353 47.8155 26.2591C48.6966 17.1978 43.7372 8.38713 35.4824 4.34872ZM23.4297 4.89791C14.3633 6.00731 7.21934 13.0774 6.09493 22.0534C5.8862 23.7193 6.01373 26.9015 6.3534 28.5065C6.62932 29.8105 7.22865 31.6862 7.60545 32.4253C7.71789 32.6458 7.8099 32.9311 7.8099 33.0593C7.8099 33.1874 7.35254 35.2975 6.79354 37.7483C6.23454 40.199 5.77718 42.364 5.77718 42.5593C5.77718 43.0489 6.27017 43.5409 6.75855 43.5386C6.95434 43.5378 9.25687 43.206 11.8753 42.8014L16.6362 42.0659L17.0396 42.2711C19.865 43.7083 23.8213 44.4607 27.1017 44.1848C32.1743 43.7582 36.4442 41.7335 39.9077 38.1126C43.4342 34.4261 45.3527 29.6666 45.3597 24.5888C45.3688 17.8645 42.1003 11.7373 36.5519 8.07742C34.1953 6.52289 31.7577 5.55319 28.9394 5.04907C27.7993 4.84513 24.5822 4.75681 23.4297 4.89791Z" fill="#BDA588"/>
</svg>
